<?xml version="1.0" standalone="no"?>
<!DOCTYPE svg PUBLIC "-//W3C//DTD SVG 1.1//EN" "http://www.w3.org/Graphics/SVG/1.1/DTD/svg11.dtd">
<svg xmlns="http://www.w3.org/2000/svg">
<metadata>Generated by Fontastic.me</metadata>
<defs>
<font id="iconosmelia" horiz-adv-x="512">
<font-face font-family="iconosmelia" units-per-em="512" ascent="480" descent="-32"/>
<missing-glyph horiz-adv-x="512" />

<glyph glyph-name="bars-solid" unicode="&#97;" d="M32 416c0 18 14 32 32 32l384 0c18 0 32-14 32-32 0-18-14-32-32-32l-384 0c-18 0-32 14-32 32z m0-160c0 18 14 32 32 32l384 0c18 0 32-14 32-32 0-18-14-32-32-32l-384 0c-18 0-32 14-32 32z m448-160c0-18-14-32-32-32l-384 0c-18 0-32 14-32 32 0 18 14 32 32 32l384 0c18 0 32-14 32-32z"/>
<glyph glyph-name="mail-line" unicode="&#98;" d="M64 448l384 0c12 0 21-10 21-21l0-342c0-11-9-21-21-21l-384 0c-12 0-21 10-21 21l0 342c0 11 9 21 21 21z m363-90l-169-152-173 152 0-251 342 0z m-331 47l161-142 159 142z"/>
<glyph glyph-name="breakfast" unicode="&#99;" d="M128 64c-12 0-22 4-30 13-8 8-13 18-13 30l0 182c-13 8-23 18-31 31-8 13-11 27-11 43 0 23 8 43 25 60 16 17 37 25 60 25l256 0c23 0 44-8 60-25 17-17 25-37 25-60 0-16-3-30-11-43-8-13-18-23-31-31l0-182c0-12-5-22-13-30-8-9-18-13-30-13z m0 43l256 0 0 207 21 12c7 4 12 9 16 16 4 6 6 13 6 21 0 11-5 21-13 30-8 8-18 12-30 12l-256 0c-12 0-22-4-30-12-8-9-13-19-13-30 0-8 2-15 6-22 4-7 9-12 16-16l21-11z m113 49c4-4 9-6 15-6 6 0 11 2 15 6l64 64c4 4 6 9 6 15 0 6-2 11-6 15l-64 64c-4 4-9 6-15 6-6 0-11-2-15-6l-64-64c-4-4-6-9-6-15 0-6 2-11 6-15z m15 45l-34 34 34 34 34-34z m0 55z"/>
<glyph glyph-name="num-persons" unicode="&#100;" d="M0 128l0 34c0 15 8 27 23 37 16 10 37 14 62 14 5 0 9 0 14 0 4 0 8-1 12-1-5-8-9-16-11-24-3-8-4-16-4-25l0-35z m128 0l0 35c0 11 3 21 9 31 7 9 15 18 27 25 11 7 25 12 41 16 15 3 33 5 51 5 19 0 36-2 52-5 16-4 29-9 41-16 11-7 20-16 26-25 6-10 9-20 9-31l0-35z m288 0l0 35c0 9-1 18-3 26-3 8-6 16-11 23 4 0 8 1 12 1 4 0 8 0 13 0 25 0 46-4 62-14 15-9 23-22 23-37l0-34z m-243 43l166 0c-3 7-13 13-29 18-17 6-34 8-54 8-20 0-37-2-54-8-16-5-25-11-29-18z m-88 64c-11 0-21 4-30 12-8 9-12 19-12 30 0 12 4 23 12 31 9 8 19 12 30 12 12 0 23-4 31-12 8-8 12-19 12-31 0-11-4-21-12-30-8-8-19-12-31-12z m342 0c-12 0-22 4-30 12-9 9-13 19-13 30 0 12 4 23 13 31 8 8 18 12 30 12 12 0 22-4 30-12 8-8 12-19 12-31 0-11-4-21-12-30-8-8-18-12-30-12z m-171 21c-18 0-33 6-45 19-13 12-19 27-19 45 0 18 6 33 19 46 12 12 27 18 45 18 18 0 33-6 46-18 12-13 18-28 18-46 0-18-6-33-18-45-13-13-28-19-46-19z m0 43c6 0 11 2 15 6 4 4 6 9 6 15 0 6-2 11-6 15-4 4-9 6-15 6-6 0-11-2-15-6-4-4-6-9-6-15 0-6 2-11 6-15 4-4 9-6 15-6z m1-128z m-1 149z"/>
<glyph glyph-name="bx-dumbbell" unicode="&#101;" d="M128 405l0-298 64 0 0 128 128 0 0-128 64 0 0 298-64 0 0-128-128 0 0 128z m-64-213c0-12 10-21 21-21l22 0 0 170-22 0c-11 0-21-9-21-21l0-43-21 0 0-42 21 0z m384 128c0 12-10 21-21 21l-22 0 0-170 22 0c11 0 21 9 21 21l0 43 21 0 0 42-21 0z"/>
<glyph glyph-name="parking" unicode="&#102;" d="M128 64l0 384 149 0c36 0 66-12 91-37 25-25 37-55 37-91 0-36-12-66-37-91-25-25-55-37-91-37l-64 0 0-128z m85 213l69 0c11 0 21 5 30 13 8 8 12 18 12 30 0 12-4 22-12 30-9 8-19 13-30 13l-69 0z"/>
<glyph glyph-name="bx-restaurant" unicode="&#103;" d="M256 299l-43 0 0 149-42 0 0-149-43 0 0 149-43 0 0-171c0-35 29-64 64-64l22 0 0-149 42 0 0 149 22 0c35 0 64 29 64 64l0 171-43 0z m149 149l-21 0c-25 0-43-27-43-64l0-171 43 0 0-149 43 0 0 363c0 11-10 21-22 21z"/>
<glyph glyph-name="rectangle-xmark-solid" unicode="&#104;" d="M64 480c-35 0-64-29-64-64l0-320c0-35 29-64 64-64l384 0c35 0 64 29 64 64l0 320c0 35-29 64-64 64z m111-143c9 9 25 9 34 0l47-47 47 47c9 9 25 9 34 0 9-9 9-25 0-34l-47-47 47-47c9-9 9-25 0-34-10-9-25-9-34 0l-47 47-47-47c-9-9-25-9-34 0-9 10-9 25 0 34l47 47-47 47c-9 9-9 25 0 34z"/>
<glyph glyph-name="bx-swim" unicode="&#105;" d="M448 384c0-24-19-43-43-43-23 0-42 19-42 43 0 24 19 43 42 43 24 0 43-19 43-43z m-45-154c-12-10-21-17-40-17-20 0-28 7-40 17-15 12-33 26-67 26-34 0-52-14-67-26-12-10-21-17-40-17-19 0-27 7-40 17-14 12-32 26-66 26l0-43c19 0 27-6 40-16 14-12 32-26 66-26 34 0 52 14 67 26 12 10 21 16 40 16 19 0 28-7 40-16 14-12 32-26 67-26 34 0 52 14 66 26 13 10 21 16 40 16l0 43c-34 0-52-14-66-26z m-40-123c-20 0-28 6-40 16-15 12-33 26-67 26-34 0-52-14-67-26-12-10-21-16-40-16-19 0-27 6-40 16-14 12-32 26-66 26l0-42c19 0 27-7 40-17 14-12 32-26 66-26 34 0 52 14 67 26 12 10 21 17 40 17 19 0 28-7 40-17 14-12 32-26 67-26 34 0 52 14 66 26 13 10 21 17 40 17l0 42c-34 0-52-14-66-26-12-9-21-16-40-16z m-128 289l45-44-44-55c6 1 12 2 20 2 34 0 52-15 67-26 12-10 20-17 40-17 19 0 28 7 40 17 2 2 6 4 9 7l-45 44 0 0-117 118c-4 4-10 6-15 6-6 0-11-2-15-6l-86-86 30-30z"/>
<glyph glyph-name="share-line" unicode="&#106;" d="M280 149l-90 49c-15-17-37-27-62-27-47 0-85 38-85 85 0 47 38 85 85 85 25 0 47-10 62-27l90 49c-2 7-3 14-3 21 0 47 39 85 86 85 47 0 85-38 85-85 0-47-38-85-85-85-25 0-47 10-63 27l-89-49c1-7 2-14 2-21 0-7-1-14-2-21l89-49c16 17 38 27 63 27 47 0 85-38 85-85 0-47-38-85-85-85-47 0-86 38-86 85 0 7 1 14 3 21z m-152 64c24 0 43 19 43 43 0 24-19 43-43 43-24 0-43-19-43-43 0-24 19-43 43-43z m235 128c23 0 42 19 42 43 0 24-19 43-42 43-24 0-43-19-43-43 0-24 19-43 43-43z m0-256c23 0 42 19 42 43 0 24-19 43-42 43-24 0-43-19-43-43 0-24 19-43 43-43z"/>
<glyph glyph-name="bxs-dog" unicode="&#107;" d="M448 384l-43 0-27 27c-10 10-23 15-37 16l-53 0c-6 24-28 42-53 42l0-135c1-22 9-42 24-58 24-23 55-37 88-39l73 29c18 7 31 22 37 39l12 33c1 2 1 5 0 7l0 18c0 11-9 21-21 21z m-107-43c-11 0-21 10-21 22 0 11 10 21 21 21 12 0 22-10 22-21 0-12-10-22-22-22z m-98-79c-15 16-25 36-28 58l-87 0c-12-1-23 3-31 12-8 8-12 19-12 31 0 11-9 21-21 21-12 0-21-10-21-21 0-15 3-30 10-43 7-14 18-25 32-33l0-244 64 0 0 106 128 0 0-106 64 0 0 173c-37 3-72 19-98 46z"/>
<glyph glyph-name="twitter-x-fill" unicode="&#108;" d="M388 464l71 0-154-176 181-240-142 0-111 145-127-145-71 0 165 188-174 228 146 0 100-133z m-24-374l39 0-253 334-42 0z"/>
<glyph glyph-name="bxs-star" unicode="&#109;" d="M468 316c-3 8-10 14-18 15l-122 9-53 117c-3 7-11 12-19 12-8 0-16-5-19-12l-53-117-122-9c-8-1-15-7-18-14-3-8-1-17 5-23l90-88-32-137c-2-9 2-18 9-23 7-5 17-5 24 0l116 78 116-78c8-5 17-4 25 1 7 5 10 14 8 23l-39 136 96 87c7 6 9 15 6 23z"/>
<glyph glyph-name="calendar" unicode="&#110;" d="M107 43c-12 0-22 4-30 12-9 9-13 19-13 30l0 299c0 12 4 22 13 30 8 8 18 13 30 13l21 0 0 42 43 0 0-42 170 0 0 42 43 0 0-42 21 0c12 0 22-5 30-13 9-8 13-18 13-30l0-299c0-11-4-21-13-30-8-8-18-12-30-12z m0 42l298 0 0 214-298 0z m0 256l298 0 0 43-298 0z m0 0l0 43z m149-128c-6 0-11 2-15 6-4 5-6 10-6 16 0 6 2 11 6 15 4 4 9 6 15 6 6 0 11-2 15-6 4-4 6-9 6-15 0-6-2-11-6-16-4-4-9-6-15-6z m-85 0c-6 0-11 2-16 6-4 5-6 10-6 16 0 6 2 11 6 15 5 4 10 6 16 6 6 0 11-2 15-6 4-4 6-9 6-15 0-6-2-11-6-16-4-4-9-6-15-6z m170 0c-6 0-11 2-15 6-4 5-6 10-6 16 0 6 2 11 6 15 4 4 9 6 15 6 6 0 11-2 16-6 4-4 6-9 6-15 0-6-2-11-6-16-5-4-10-6-16-6z m-85-85c-6 0-11 2-15 6-4 4-6 9-6 15 0 6 2 11 6 16 4 4 9 6 15 6 6 0 11-2 15-6 4-5 6-10 6-16 0-6-2-11-6-15-4-4-9-6-15-6z m-85 0c-6 0-11 2-16 6-4 4-6 9-6 15 0 6 2 11 6 16 5 4 10 6 16 6 6 0 11-2 15-6 4-5 6-10 6-16 0-6-2-11-6-15-4-4-9-6-15-6z m170 0c-6 0-11 2-15 6-4 4-6 9-6 15 0 6 2 11 6 16 4 4 9 6 15 6 6 0 11-2 16-6 4-5 6-10 6-16 0-6-2-11-6-15-5-4-10-6-16-6z"/>
<glyph glyph-name="city" unicode="&#111;" d="M64 64l0 299 128 0 0 42 64 64 64-64 0-128 128 0 0-213z m43 43l42 0 0 42-42 0z m0 85l42 0 0 43-42 0z m0 85l42 0 0 43-42 0z m128-170l42 0 0 42-42 0z m0 85l42 0 0 43-42 0z m0 85l42 0 0 43-42 0z m0 86l42 0 0 42-42 0z m128-256l42 0 0 42-42 0z m0 85l42 0 0 43-42 0z"/>
<glyph glyph-name="user-solid" unicode="&#112;" d="M256 256c71 0 128 57 128 128 0 71-57 128-128 128-71 0-128-57-128-128 0-71 57-128 128-128z m-46-48c-98 0-178-80-178-178 0-17 13-30 30-30l388 0c17 0 30 13 30 30 0 98-80 178-178 178z"/>
<glyph glyph-name="facebook-circle-line" unicode="&#113;" d="M277 87c85 10 150 82 150 169 0 94-77 171-171 171-94 0-171-77-171-171 0-87 66-159 150-169l0 126-43 0 0 43 43 0 0 35c0 29 3 39 8 50 6 10 14 18 24 24 9 4 19 7 36 8 7 0 17 0 28-2l0-40-11 0c-20 0-28-1-32-4-3-1-6-4-7-7-3-4-4-9-4-29l0-35 54 0-11-43-43 0z m-21-44c-118 0-213 95-213 213 0 118 95 213 213 213 118 0 213-95 213-213 0-118-95-213-213-213z"/>
<glyph glyph-name="house-solid" unicode="&#114;" d="M512 256c0-16-14-28-29-28l-28 0 1-142c0-3-1-5-1-8l0-14c0-20-16-36-35-36l-15 0c-1 0-2 0-3 1-1-1-2-1-3-1l-51 0c-19 0-35 16-35 36l0 78c0 16-13 29-29 29l-56 0c-16 0-29-13-29-29l0-78c0-20-16-36-35-36l-50 0c-1 0-3 1-4 1-1 0-2-1-3-1l-15 0c-19 0-35 16-35 36l0 100c0 0 0 1 0 2l0 62-29 0c-16 0-28 12-28 28 0 8 3 16 9 22l228 198c6 7 13 8 19 8 7 0 14-2 19-7l227-199c7-6 11-14 10-22z"/>
<glyph glyph-name="instagram-line" unicode="&#115;" d="M256 320c-35 0-64-29-64-64 0-35 29-64 64-64 35 0 64 29 64 64 0 35-29 64-64 64z m0 43c59 0 107-48 107-107 0-59-48-107-107-107-59 0-107 48-107 107 0 59 48 107 107 107z m139 5c0-15-12-27-27-27-15 0-27 12-27 27 0 15 12 27 27 27 15 0 27-12 27-27z m-139 59c-53 0-61 0-86-2-17 0-28-3-38-7-10-3-16-8-23-15-7-7-12-13-15-23-4-10-7-21-7-38-2-24-2-32-2-86 0-53 0-61 2-86 0-17 3-28 7-38 3-10 8-16 15-23 7-8 13-12 23-15 10-4 21-7 38-7 24-2 32-2 86-2 53 0 61 0 86 2 17 0 28 3 38 7 10 3 16 8 23 15 8 7 12 13 15 23 4 10 7 21 7 38 2 24 2 32 2 86 0 53 0 61-2 86 0 17-3 28-7 38-3 10-8 16-15 23-7 8-13 12-23 15-10 4-21 7-38 7-24 2-32 2-86 2z m0 42c58 0 65 0 88-1 23-1 38-5 52-10 14-5 26-13 38-24 11-12 19-24 24-38 5-14 9-29 10-52 1-23 1-30 1-88 0-58 0-65-1-88-1-23-5-38-10-52-5-14-13-26-24-38-12-11-24-19-38-24-14-5-29-9-52-10-23-1-30-1-88-1-58 0-65 0-88 1-23 1-38 5-52 10-14 5-26 13-38 24-11 12-19 24-24 38-5 14-9 29-10 52-1 23-1 30-1 88 0 58 0 65 1 88 1 23 5 38 10 52 5 14 13 26 24 38 12 11 24 19 38 24 14 5 29 9 52 10 23 1 30 1 88 1z"/>
<glyph glyph-name="magnifying-glass-solid" unicode="&#116;" d="M416 304c0-46-15-88-40-123l127-126c12-13 12-33 0-46-13-12-33-12-46 0l-126 127c-35-25-77-40-123-40-115 0-208 93-208 208 0 115 93 208 208 208 115 0 208-93 208-208z m-208-144c80 0 144 64 144 144 0 80-64 144-144 144-80 0-144-64-144-144 0-80 64-144 144-144z"/>
</font>
</defs>
</svg>
